<svg width="117" height="40" viewBox="0 0 117 40" fill="none" xmlns="http://www.w3.org/2000/svg">
<g clip-path="url(#clip0_1283_467)">
<path d="M43.356 12.1307H45.4435V22.3776H43.356V12.1307ZM48.1007 12.1307H50.1755L53.8927 15.8676L57.6098 12.1307H59.6846V22.3776H57.6098V15.0087L53.8927 18.5949L50.1755 15.0087V22.3776H48.1007V12.1307ZM62.6034 12.1307H64.6782L68.3956 15.8676L72.1128 12.1307H74.1875V22.3776H72.1128V15.0087L68.3956 18.5949L64.6782 15.0087V22.3776H62.6034V12.1307ZM76.4977 17.2246C76.4977 16.4511 76.6395 15.743 76.9232 15.1005C77.2066 14.458 77.6037 13.9074 78.1142 13.4484C78.6291 12.9852 79.2442 12.6267 79.9599 12.3733C80.6798 12.1198 81.4759 11.993 82.3485 11.993C83.2169 11.993 84.0108 12.1198 84.7309 12.3733C85.4508 12.6267 86.066 12.9852 86.5764 13.4484C87.0913 13.9074 87.4904 14.458 87.7741 15.1005C88.0578 15.743 88.1994 16.4511 88.1994 17.2246C88.1994 18.0026 88.0578 18.7172 87.7741 19.3685C87.4904 20.0153 87.0913 20.5726 86.5764 21.0402C86.066 21.5079 85.4508 21.8728 84.7309 22.1351C84.0108 22.3929 83.2169 22.5218 82.3485 22.5218C81.4759 22.5218 80.6798 22.3929 79.9599 22.1351C79.2442 21.8728 78.6291 21.5079 78.1142 21.0402C77.6037 20.5726 77.2066 20.0153 76.9232 19.3685C76.6395 18.7172 76.4977 18.0026 76.4977 17.2246ZM78.5724 17.2246C78.5724 17.7535 78.6662 18.2299 78.8539 18.6539C79.0457 19.0778 79.3096 19.4406 79.6458 19.7421C79.9859 20.0393 80.3852 20.2688 80.8434 20.4305C81.3058 20.5922 81.8076 20.6731 82.3485 20.6731C82.8897 20.6731 83.3892 20.5922 83.8472 20.4305C84.3099 20.2688 84.7089 20.0393 85.0448 19.7421C85.381 19.4406 85.6449 19.0778 85.8367 18.6539C86.0288 18.2299 86.1249 17.7535 86.1249 17.2246C86.1249 16.6958 86.0288 16.2216 85.8367 15.802C85.6449 15.3824 85.381 15.0284 85.0448 14.7399C84.7089 14.4471 84.3099 14.2242 83.8472 14.0712C83.3892 13.9183 82.8897 13.8418 82.3485 13.8418C81.8076 13.8418 81.3058 13.9183 80.8434 14.0712C80.3852 14.2242 79.9859 14.4471 79.6458 14.7399C79.3096 15.0284 79.0457 15.3824 78.8539 15.802C78.6662 16.2216 78.5724 16.6958 78.5724 17.2246ZM43.6243 26.1167H45.6987L49.4162 29.8537L53.1334 26.1167H55.2081V36.3636H53.1334V28.9947L49.4162 32.581L45.6987 28.9947V36.3636H43.6243V26.1167ZM61.6088 26.1167H63.8078L68.7556 36.3636H66.5761L65.758 34.6394H59.7829L58.991 36.3636H56.8051L61.6088 26.1167ZM64.9398 32.9284L62.728 28.2736L60.5748 32.9284H64.9398ZM70.8236 33.3152C71.1944 33.525 71.5697 33.715 71.9492 33.8856C72.3331 34.0515 72.7302 34.1936 73.1404 34.3116C73.5503 34.4252 73.9804 34.5127 74.4296 34.574C74.8834 34.635 75.3654 34.6657 75.8761 34.6657C76.4912 34.6657 77.0148 34.6263 77.4468 34.5477C77.8785 34.4646 78.2298 34.353 78.5004 34.2131C78.7751 34.0691 78.9737 33.8987 79.096 33.7018C79.2225 33.5052 79.2858 33.2912 79.2858 33.0596C79.2858 32.6878 79.1309 32.395 78.8209 32.181C78.5112 31.9625 78.0335 31.8531 77.3879 31.8531C77.1042 31.8531 76.8054 31.8727 76.4912 31.9122C76.1771 31.9471 75.8585 31.9866 75.5357 32.0302C75.2171 32.0738 74.9007 32.1152 74.5866 32.1547C74.2769 32.1897 73.9845 32.2073 73.7098 32.2073C73.2515 32.2073 72.8109 32.1483 72.3876 32.0302C71.9687 31.9122 71.5957 31.7351 71.2687 31.499C70.9456 31.2632 70.6882 30.9681 70.4963 30.614C70.3042 30.2601 70.2084 29.847 70.2084 29.3751C70.2084 29.0954 70.2453 28.8176 70.3196 28.5424C70.398 28.2671 70.5203 28.0048 70.6862 27.7557C70.8563 27.5022 71.0743 27.2684 71.3405 27.0542C71.6068 26.8357 71.9274 26.6477 72.3027 26.4904C72.6822 26.333 73.1186 26.2107 73.6115 26.1232C74.1088 26.0315 74.674 25.9856 75.3067 25.9856C75.7647 25.9856 76.2251 26.0118 76.6876 26.0643C77.15 26.1123 77.5993 26.1823 78.0357 26.274C78.4763 26.3658 78.8997 26.4773 79.3054 26.6084C79.7111 26.7351 80.0884 26.8772 80.4374 27.0345L79.5279 28.7127C79.2398 28.586 78.9301 28.4702 78.5986 28.3653C78.2669 28.2562 77.9201 28.1622 77.5579 28.0834C77.1958 28.0048 76.8205 27.9436 76.4323 27.8999C76.0484 27.8518 75.6558 27.8278 75.2542 27.8278C74.6826 27.8278 74.2116 27.8693 73.8407 27.9524C73.4741 28.0355 73.1817 28.1424 72.9637 28.2736C72.7456 28.4003 72.5928 28.5446 72.5054 28.7063C72.4225 28.8638 72.3812 29.021 72.3812 29.1782C72.3812 29.4842 72.5186 29.7357 72.7936 29.9323C73.0684 30.1245 73.4872 30.2207 74.0502 30.2207C74.2769 30.2207 74.5366 30.2053 74.829 30.1748C75.1255 30.1399 75.4352 30.1027 75.7583 30.0635C76.0855 30.0241 76.417 29.9891 76.7529 29.9586C77.0933 29.9236 77.4228 29.906 77.7411 29.906C78.3431 29.906 78.8756 29.9737 79.3381 30.1094C79.8049 30.2448 80.1953 30.4392 80.5095 30.6929C80.8236 30.9418 81.0615 31.2456 81.2229 31.6039C81.3843 31.958 81.465 32.3558 81.465 32.7972C81.465 33.3871 81.3276 33.9138 81.0529 34.3771C80.7823 34.8361 80.3939 35.2252 79.8879 35.5441C79.3861 35.8587 78.7796 36.0993 78.0684 36.2652C77.3572 36.4271 76.5653 36.508 75.6926 36.508C75.1169 36.508 74.5539 36.4708 74.0041 36.3964C73.4546 36.3264 72.9265 36.226 72.4205 36.0948C71.9188 35.9594 71.4388 35.7997 70.9805 35.6162C70.5268 35.4283 70.1057 35.2229 69.7175 35L70.8236 33.3152ZM86.8316 27.9392H83.0555V26.1167H92.6825V27.9392H88.9064V36.3636H86.8316V27.9392ZM94.901 26.1167H103.612V27.9392H96.9757V29.9846H102.853V31.6957H96.9757V34.5477H103.749V36.3636H94.901V26.1167ZM106.053 26.1167H111.256C112.041 26.1167 112.722 26.1997 113.298 26.3658C113.874 26.5275 114.352 26.7636 114.731 27.0739C115.111 27.3842 115.392 27.7622 115.575 28.2081C115.763 28.654 115.857 29.1586 115.857 29.7225C115.857 30.1027 115.811 30.4655 115.719 30.8106C115.628 31.1516 115.486 31.4663 115.294 31.7547C115.107 32.0434 114.869 32.3013 114.581 32.5284C114.293 32.7513 113.955 32.9371 113.566 33.0856L115.792 36.3636H113.252L111.328 33.4529H111.269L108.128 33.4462V36.3636H106.053V26.1167ZM111.308 31.6498C111.701 31.6498 112.044 31.6039 112.336 31.5122C112.633 31.4204 112.879 31.2915 113.075 31.1253C113.276 30.9594 113.424 30.7583 113.52 30.5222C113.621 30.282 113.671 30.0154 113.671 29.7225C113.671 29.1499 113.475 28.7085 113.082 28.398C112.689 28.0834 112.098 27.9261 111.308 27.9261H108.128V31.6498H111.308Z" fill="white"/>
<path fill-rule="evenodd" clip-rule="evenodd" d="M39.0931 24.0559V40H36.0215H32.9499V31.6084C32.9499 26.993 32.9032 23.2168 32.846 23.2168C32.789 23.2168 29.7772 26.2064 26.1533 29.8601L19.5644 36.5035L14.3896 31.3315L9.2148 26.1594V21.6839V17.2084L14.3837 22.3804L19.5527 27.5524L29.2447 17.8322C34.5753 12.4859 38.9719 8.11188 39.0149 8.11188C39.0579 8.11188 39.0931 15.2867 39.0931 24.0559ZM3.28605 11.2635L6.1432 14.1354V27.0677V40H3.0716H0V24.1958C0 15.5035 0.0966172 8.3916 0.214455 8.3916C0.332294 8.3916 1.71451 9.68391 3.28605 11.2635Z" fill="white"/>
<path d="M6.1432 0H0V6.15385H6.1432V0Z" fill="#F7C61A"/>
</g>
<defs>
<clipPath id="clip0_1283_467">
<rect width="117" height="40" fill="white"/>
</clipPath>
</defs>
</svg>
